<mxfile host="app.diagrams.net" modified="2022-05-28T10:18:10.617Z" agent="5.0 (X11)" etag="LD5Gym9zYl0iCgRkWjDu" version="18.1.3" type="github">
  <diagram id="UbQv_EctIj_w4tUcBMWh" name="Page-1">
    <mxGraphModel dx="2512" dy="1627" grid="1" gridSize="10" guides="1" tooltips="1" connect="1" arrows="1" fold="1" page="1" pageScale="1" pageWidth="850" pageHeight="1100" math="0" shadow="0">
      <root>
        <mxCell id="0" />
        <mxCell id="1" parent="0" />
        <mxCell id="_KIMBr_GJViHkxQJKJZy-1" value="s_rst" style="ellipse;shape=doubleEllipse;whiteSpace=wrap;html=1;aspect=fixed;fillColor=#f5f5f5;gradientColor=#b3b3b3;strokeColor=#666666;shadow=1;" parent="1" vertex="1">
          <mxGeometry x="280" y="160" width="80" height="80" as="geometry" />
        </mxCell>
        <mxCell id="_KIMBr_GJViHkxQJKJZy-2" value="s_idle" style="ellipse;whiteSpace=wrap;html=1;aspect=fixed;fillColor=#f5f5f5;gradientColor=#b3b3b3;strokeColor=#666666;shadow=1;" parent="1" vertex="1">
          <mxGeometry x="280" y="360" width="80" height="80" as="geometry" />
        </mxCell>
        <mxCell id="_KIMBr_GJViHkxQJKJZy-3" value="" style="curved=1;endArrow=classic;html=1;rounded=0;" parent="1" source="_KIMBr_GJViHkxQJKJZy-1" target="_KIMBr_GJViHkxQJKJZy-2" edge="1">
          <mxGeometry width="50" height="50" relative="1" as="geometry">
            <mxPoint x="420" y="300" as="sourcePoint" />
            <mxPoint x="470" y="250" as="targetPoint" />
            <Array as="points">
              <mxPoint x="370" y="290" />
            </Array>
          </mxGeometry>
        </mxCell>
        <mxCell id="_KIMBr_GJViHkxQJKJZy-4" value="&lt;div&gt;/ ram_selector &amp;lt;= &#39;0&#39;&lt;/div&gt;&lt;div&gt;irq &amp;lt;= &#39;0&#39;&lt;br&gt;&lt;/div&gt;" style="text;html=1;align=center;verticalAlign=middle;resizable=0;points=[];autosize=1;strokeColor=none;fillColor=none;" parent="1" vertex="1">
          <mxGeometry x="365" y="275" width="120" height="30" as="geometry" />
        </mxCell>
        <mxCell id="_KIMBr_GJViHkxQJKJZy-6" value="&lt;div align=&quot;left&quot;&gt;&lt;b&gt;Ports:&lt;/b&gt;&lt;/div&gt;&lt;div align=&quot;left&quot;&gt;&lt;ul&gt;&lt;li&gt;wr : in std_logic&lt;/li&gt;&lt;li&gt;hold : in std_logic&lt;/li&gt;&lt;li&gt;shift : in std_logic&lt;/li&gt;&lt;li&gt;busy : out std_logic (concurrent assignment)&lt;br&gt;&lt;/li&gt;&lt;li&gt;irq : out std_logic (process assignment)&lt;/li&gt;&lt;/ul&gt;&lt;/div&gt;&lt;div&gt;&lt;b&gt;Signals:&lt;/b&gt;&lt;/div&gt;&lt;div&gt;&lt;ul&gt;&lt;li&gt;ram_selector : std_logic := &#39;0&#39;&lt;/li&gt;&lt;/ul&gt;&lt;/div&gt;&lt;div&gt;&lt;b&gt;Concurrent statements:&lt;/b&gt;&lt;/div&gt;&lt;div&gt;&lt;ul&gt;&lt;li&gt;&lt;br&gt;&lt;/li&gt;&lt;/ul&gt;&lt;/div&gt;&lt;div&gt;&lt;br&gt;&lt;/div&gt;&lt;div&gt;&lt;b&gt;Auxiliary processes:&lt;/b&gt;&lt;/div&gt;&lt;div align=&quot;left&quot;&gt;&lt;ul&gt;&lt;li&gt;RAM write process&lt;/li&gt;&lt;li&gt;RAM read process&lt;/li&gt;&lt;/ul&gt;&lt;/div&gt;" style="rounded=0;whiteSpace=wrap;html=1;align=left;" parent="1" vertex="1">
          <mxGeometry x="830" y="320" width="360" height="350" as="geometry" />
        </mxCell>
        <mxCell id="_KIMBr_GJViHkxQJKJZy-7" value="s_wait" style="ellipse;whiteSpace=wrap;html=1;aspect=fixed;fillColor=#f5f5f5;gradientColor=#b3b3b3;strokeColor=#666666;shadow=1;" parent="1" vertex="1">
          <mxGeometry x="30" y="360" width="80" height="80" as="geometry" />
        </mxCell>
        <mxCell id="_KIMBr_GJViHkxQJKJZy-8" value="" style="curved=1;endArrow=classic;html=1;rounded=0;" parent="1" source="_KIMBr_GJViHkxQJKJZy-2" target="_KIMBr_GJViHkxQJKJZy-7" edge="1">
          <mxGeometry width="50" height="50" relative="1" as="geometry">
            <mxPoint x="130" y="410" as="sourcePoint" />
            <mxPoint x="180" y="360" as="targetPoint" />
            <Array as="points">
              <mxPoint x="180" y="350" />
            </Array>
          </mxGeometry>
        </mxCell>
        <mxCell id="_KIMBr_GJViHkxQJKJZy-9" value="&lt;div&gt;if (rising_edge(shift)) /&lt;/div&gt;&lt;div&gt;wait_cnt &amp;lt;= &quot;0000&quot;&lt;br&gt;&lt;/div&gt;&lt;div&gt;irq &amp;lt;= &#39;0&#39;&lt;br&gt;&lt;/div&gt;" style="text;html=1;align=center;verticalAlign=middle;resizable=0;points=[];autosize=1;strokeColor=none;fillColor=none;" parent="1" vertex="1">
          <mxGeometry x="120" y="310" width="130" height="50" as="geometry" />
        </mxCell>
        <mxCell id="_KIMBr_GJViHkxQJKJZy-10" value="s_shift" style="ellipse;whiteSpace=wrap;html=1;aspect=fixed;fillColor=#f5f5f5;gradientColor=#b3b3b3;strokeColor=#666666;shadow=1;" parent="1" vertex="1">
          <mxGeometry x="205" y="600" width="80" height="80" as="geometry" />
        </mxCell>
        <mxCell id="_KIMBr_GJViHkxQJKJZy-11" value="" style="curved=1;endArrow=classic;html=1;rounded=0;" parent="1" source="-u52cWT68IsoOLXIkymL-1" target="_KIMBr_GJViHkxQJKJZy-10" edge="1">
          <mxGeometry width="50" height="50" relative="1" as="geometry">
            <mxPoint x="40" y="660" as="sourcePoint" />
            <mxPoint x="80" y="500" as="targetPoint" />
            <Array as="points">
              <mxPoint x="110" y="710" />
            </Array>
          </mxGeometry>
        </mxCell>
        <mxCell id="_KIMBr_GJViHkxQJKJZy-12" value="&lt;div&gt;if (hold = &#39;0&#39;) /&lt;/div&gt;&lt;div&gt;ram_selector &amp;lt;= not ram_selector&lt;/div&gt;" style="text;html=1;align=center;verticalAlign=middle;resizable=0;points=[];autosize=1;strokeColor=none;fillColor=none;rotation=10;" parent="1" vertex="1">
          <mxGeometry x="15" y="690" width="190" height="30" as="geometry" />
        </mxCell>
        <mxCell id="_KIMBr_GJViHkxQJKJZy-15" value="" style="curved=1;endArrow=classic;html=1;rounded=0;" parent="1" source="_KIMBr_GJViHkxQJKJZy-10" target="_KIMBr_GJViHkxQJKJZy-2" edge="1">
          <mxGeometry width="50" height="50" relative="1" as="geometry">
            <mxPoint x="130" y="670" as="sourcePoint" />
            <mxPoint x="250.27027431500073" y="589.845557534285" as="targetPoint" />
            <Array as="points">
              <mxPoint x="320" y="520" />
            </Array>
          </mxGeometry>
        </mxCell>
        <mxCell id="_KIMBr_GJViHkxQJKJZy-18" value="&lt;div&gt;busy &amp;lt;= &#39;1&#39;&lt;/div&gt;" style="text;html=1;align=center;verticalAlign=middle;resizable=0;points=[];autosize=1;strokeColor=none;fillColor=none;" parent="1" vertex="1">
          <mxGeometry x="285" y="135" width="70" height="20" as="geometry" />
        </mxCell>
        <mxCell id="_KIMBr_GJViHkxQJKJZy-19" value="&lt;div&gt;busy &amp;lt;= &#39;0&#39;&lt;/div&gt;" style="text;html=1;align=center;verticalAlign=middle;resizable=0;points=[];autosize=1;strokeColor=none;fillColor=none;" parent="1" vertex="1">
          <mxGeometry x="360" y="380" width="70" height="20" as="geometry" />
        </mxCell>
        <mxCell id="_KIMBr_GJViHkxQJKJZy-20" value="&lt;div&gt;busy &amp;lt;= &#39;1&#39;&lt;/div&gt;" style="text;html=1;align=center;verticalAlign=middle;resizable=0;points=[];autosize=1;strokeColor=none;fillColor=none;" parent="1" vertex="1">
          <mxGeometry x="30" y="335" width="70" height="20" as="geometry" />
        </mxCell>
        <mxCell id="_KIMBr_GJViHkxQJKJZy-21" value="&lt;div&gt;busy &amp;lt;= &#39;1&#39;&lt;/div&gt;" style="text;html=1;align=center;verticalAlign=middle;resizable=0;points=[];autosize=1;strokeColor=none;fillColor=none;" parent="1" vertex="1">
          <mxGeometry x="290" y="630" width="70" height="20" as="geometry" />
        </mxCell>
        <mxCell id="_KIMBr_GJViHkxQJKJZy-23" value="/ irq &amp;lt;= &#39;1&#39;" style="text;html=1;align=center;verticalAlign=middle;resizable=0;points=[];autosize=1;strokeColor=none;fillColor=none;" parent="1" vertex="1">
          <mxGeometry x="304" y="520" width="70" height="20" as="geometry" />
        </mxCell>
        <mxCell id="_KIMBr_GJViHkxQJKJZy-24" value="" style="curved=1;endArrow=classic;html=1;rounded=0;" parent="1" source="_KIMBr_GJViHkxQJKJZy-2" target="_KIMBr_GJViHkxQJKJZy-2" edge="1">
          <mxGeometry width="50" height="50" relative="1" as="geometry">
            <mxPoint x="130" y="670" as="sourcePoint" />
            <mxPoint x="250.27027431500073" y="589.845557534285" as="targetPoint" />
            <Array as="points">
              <mxPoint x="360" y="436" />
              <mxPoint x="380" y="450" />
              <mxPoint x="350" y="480" />
            </Array>
          </mxGeometry>
        </mxCell>
        <mxCell id="_KIMBr_GJViHkxQJKJZy-25" value="/ irq &amp;lt;= &#39;0&#39;" style="text;html=1;align=center;verticalAlign=middle;resizable=0;points=[];autosize=1;strokeColor=none;fillColor=none;rotation=-50;" parent="1" vertex="1">
          <mxGeometry x="350" y="460" width="70" height="20" as="geometry" />
        </mxCell>
        <mxCell id="_KIMBr_GJViHkxQJKJZy-26" value="1" style="text;html=1;align=center;verticalAlign=middle;resizable=0;points=[];autosize=1;strokeColor=none;fillColor=none;" parent="1" vertex="1">
          <mxGeometry x="270" y="360" width="20" height="20" as="geometry" />
        </mxCell>
        <mxCell id="_KIMBr_GJViHkxQJKJZy-27" value="2" style="text;html=1;align=center;verticalAlign=middle;resizable=0;points=[];autosize=1;strokeColor=none;fillColor=none;" parent="1" vertex="1">
          <mxGeometry x="354" y="415" width="20" height="20" as="geometry" />
        </mxCell>
        <mxCell id="-u52cWT68IsoOLXIkymL-1" value="&lt;div&gt;s_hold&lt;/div&gt;" style="ellipse;whiteSpace=wrap;html=1;aspect=fixed;fillColor=#f5f5f5;gradientColor=#b3b3b3;strokeColor=#666666;shadow=1;" parent="1" vertex="1">
          <mxGeometry x="-50" y="570" width="80" height="80" as="geometry" />
        </mxCell>
        <mxCell id="-u52cWT68IsoOLXIkymL-3" value="&lt;div&gt;busy &amp;lt;= &#39;1&#39;&lt;/div&gt;" style="text;html=1;align=center;verticalAlign=middle;resizable=0;points=[];autosize=1;strokeColor=none;fillColor=none;" parent="1" vertex="1">
          <mxGeometry x="-120" y="630" width="70" height="20" as="geometry" />
        </mxCell>
        <mxCell id="-u52cWT68IsoOLXIkymL-4" value="" style="curved=1;endArrow=classic;html=1;rounded=0;" parent="1" source="_KIMBr_GJViHkxQJKJZy-7" target="-u52cWT68IsoOLXIkymL-1" edge="1">
          <mxGeometry width="50" height="50" relative="1" as="geometry">
            <mxPoint x="-180" y="520" as="sourcePoint" />
            <mxPoint x="-130" y="470" as="targetPoint" />
            <Array as="points">
              <mxPoint x="-10" y="500" />
            </Array>
          </mxGeometry>
        </mxCell>
        <mxCell id="-u52cWT68IsoOLXIkymL-5" value="" style="curved=1;endArrow=classic;html=1;rounded=0;" parent="1" source="_KIMBr_GJViHkxQJKJZy-7" target="_KIMBr_GJViHkxQJKJZy-7" edge="1">
          <mxGeometry width="50" height="50" relative="1" as="geometry">
            <mxPoint x="-130" y="410" as="sourcePoint" />
            <mxPoint x="-80" y="360" as="targetPoint" />
            <Array as="points">
              <mxPoint x="10" y="420" />
              <mxPoint x="10" y="360" />
            </Array>
          </mxGeometry>
        </mxCell>
        <mxCell id="-u52cWT68IsoOLXIkymL-6" value="/ wait_cnt &amp;lt;= wait_cnt + &quot;1&quot;" style="text;html=1;align=center;verticalAlign=middle;resizable=0;points=[];autosize=1;strokeColor=none;fillColor=none;" parent="1" vertex="1">
          <mxGeometry x="-145" y="380" width="160" height="20" as="geometry" />
        </mxCell>
        <mxCell id="-u52cWT68IsoOLXIkymL-7" value="wait_cnt &amp;lt;= &quot;1111&quot; /" style="text;html=1;align=center;verticalAlign=middle;resizable=0;points=[];autosize=1;strokeColor=none;fillColor=none;" parent="1" vertex="1">
          <mxGeometry x="-110" y="470" width="120" height="20" as="geometry" />
        </mxCell>
        <mxCell id="-u52cWT68IsoOLXIkymL-8" value="1" style="text;html=1;align=center;verticalAlign=middle;resizable=0;points=[];autosize=1;strokeColor=none;fillColor=none;" parent="1" vertex="1">
          <mxGeometry x="40" y="435" width="20" height="20" as="geometry" />
        </mxCell>
        <mxCell id="-u52cWT68IsoOLXIkymL-9" value="2" style="text;html=1;align=center;verticalAlign=middle;resizable=0;points=[];autosize=1;strokeColor=none;fillColor=none;" parent="1" vertex="1">
          <mxGeometry x="10" y="390" width="20" height="20" as="geometry" />
        </mxCell>
      </root>
    </mxGraphModel>
  </diagram>
</mxfile>
